<svg width="180" height="180" viewBox="0 0 180 180" xmlns="http://www.w3.org/2000/svg">
  <defs>
    <linearGradient id="bg" x1="0" y1="0" x2="180" y2="180" gradientUnits="userSpaceOnUse">
      <stop offset="0" stop-color="#0EA5E9"/>
      <stop offset="1" stop-color="#0369A1"/>
    </linearGradient>
  </defs>
  <rect width="180" height="180" rx="37" fill="url(#bg)"/>
  <circle cx="135" cy="56" r="14" fill="#FDE68A"/>
  <path d="M14 110c12 0 12 -10 24 -10s12 10 24 10 12 -10 24 -10 12 10 24 10 12 -10 24 -10 12 10 24 10 12 -10 22 -10v60H14z" fill="#FFFFFF" fill-opacity="0.95"/>
  <path d="M14 130c12 0 12 -10 24 -10s12 10 24 10 12 -10 24 -10 12 10 24 10 12 -10 24 -10 12 10 24 10 12 -10 22 -10" stroke="#0369A1" stroke-width="2.5" stroke-linecap="round" fill="none" opacity="0.35"/>
</svg>
